<svg width="36" height="26" viewBox="0 0 36 26" fill="none" xmlns="http://www.w3.org/2000/svg">
<g clip-path="url(#clip0_701_27)">
<path d="M27.931 7.09138C27.0345 7.08999 26.1351 7.08859 25.2388 7.09656C24.4104 7.09891 23.6615 7.50669 23.1401 8.06021C21.332 9.93146 19.5214 11.8022 17.7106 13.6731C15.5424 15.9134 13.3738 18.1539 11.2092 20.3959C10.8483 20.768 10.3592 20.9954 9.87241 20.991V20.991L9.86476 20.991C8.7727 20.9979 7.6718 20.9965 6.56871 20.9951C5.14099 20.9932 3.7096 20.9914 2.289 21.0075C1.6275 20.9826 1.03834 20.3642 1.03886 19.7043L1.03887 19.6926L1.03832 19.6808C1.006 18.9822 1.6474 18.3222 2.3915 18.2972C3.31323 18.2886 4.26266 18.2905 5.21549 18.2923C6.28803 18.2943 7.36487 18.2964 8.41134 18.2836C9.3335 18.2775 10.0995 17.7502 10.6154 17.1559C13.1458 14.5358 15.678 11.9174 18.2103 9.29875C19.5927 7.86928 20.9751 6.43975 22.3573 5.00988L22.3574 5.00998L22.3655 5.00125C22.7153 4.62168 23.2186 4.38867 23.7304 4.3761C24.5491 4.37266 25.3742 4.3736 26.2007 4.37454C27.2677 4.37575 28.3372 4.37697 29.3988 4.36879L29.8965 4.36495L29.8949 3.86725C29.8942 3.64555 29.8934 3.42417 29.8925 3.20305C29.8898 2.53608 29.8872 1.87146 29.8899 1.2075C31.6623 2.71575 33.4332 4.22519 35.1973 5.7412C33.9993 6.80087 32.7821 7.83342 31.5604 8.86984C31.0045 9.34137 30.4477 9.8137 29.8914 10.2897C29.8911 10.1252 29.8908 9.96092 29.8905 9.79682C29.889 9.06346 29.8876 8.33365 29.8948 7.59707L29.8998 7.09134L29.3941 7.09213C28.9079 7.09289 28.4199 7.09214 27.931 7.09138Z" fill="url(#paint0_linear_701_27)" stroke="black"/>
<path d="M1.94872 3.86748C4.68165 3.84494 7.42412 3.86965 10.1614 3.86168C10.8668 3.83052 11.5854 4.09357 12.0649 4.61749C13.2025 5.78135 14.3278 6.95891 15.4589 8.12915C15.9223 8.60017 16.1767 9.28569 16.0156 9.93933C15.84 10.7393 15.0697 11.3755 14.2403 11.3676C13.6771 11.393 13.1581 11.1075 12.7434 10.7531C11.968 9.93136 11.2246 9.07772 10.4369 8.26683C9.98579 7.8103 9.33717 7.58494 8.70022 7.59363C6.66036 7.58494 4.6205 7.59943 2.58057 7.58711C1.76871 7.56247 0.902917 7.18123 0.603388 6.37984C0.14207 5.35953 0.84753 4.06386 1.94872 3.86748Z" fill="#8C8C8C"/>
<path d="M18.6225 14.28C19.3272 13.7199 20.432 13.8011 21.0537 14.4481C21.9055 15.3162 22.7393 16.2025 23.592 17.0699C24.0351 17.5344 24.6735 17.7996 25.317 17.7931C26.6769 17.788 28.0368 17.7989 29.3975 17.7866C29.3836 16.5467 29.3924 15.3067 29.3946 14.0669C31.6006 15.9249 33.7898 17.8025 35.9755 19.6844C33.7928 21.5649 31.5983 23.4316 29.4003 25.294C29.3726 24.0258 29.4032 22.757 29.3865 21.4888C27.4939 21.4714 25.6013 21.4873 23.7086 21.4808C23.0564 21.475 22.4281 21.1656 21.9916 20.6902C20.7724 19.4388 19.5334 18.2069 18.3266 16.9446C17.6277 16.1859 17.7829 14.8735 18.6225 14.28Z" fill="#8C8C8C"/>
</g>
<defs>
<linearGradient id="paint0_linear_701_27" x1="18.247" y1="0.134094" x2="18.2182" y2="22.6374" gradientUnits="userSpaceOnUse">
<stop stop-color="#C12A23"/>
<stop offset="0.932655" stop-color="#102D71" stop-opacity="0.63"/>
<stop offset="0.9999" stop-color="#001AFF" stop-opacity="0.0260417"/>
<stop offset="1" stop-color="#0A3068" stop-opacity="0.66"/>
</linearGradient>
<clipPath id="clip0_701_27">
<rect x="0.435547" y="0.0645142" width="35.5645" height="25.2903" rx="5" fill="white"/>
</clipPath>
</defs>
</svg>
